<svg width="9" height="21" viewBox="0 0 9 21" fill="none" xmlns="http://www.w3.org/2000/svg">
<path fill-rule="evenodd" clip-rule="evenodd" d="M8.71042 0.253642C8.71042 1.40152 8.71042 3.49469 8.71042 3.49469C8.71042 3.49469 6.72425 3.25837 6.24869 4.16991C5.96895 4.67633 6.13679 6.12805 6.10882 7.17464C6.97602 7.17464 7.87119 7.17464 8.73839 7.17464C8.5146 8.39003 8.34675 9.23406 8.20688 10.2806C7.45158 10.2806 6.10882 10.2806 6.10882 10.2806V20.3077C6.10882 20.3077 3.64709 20.3077 2.47217 20.3077C2.47217 17.2016 2.47217 13.5892 2.47217 10.3144C1.91269 10.3144 1.49308 10.3144 0.933594 10.3144C0.933594 9.16653 0.933594 8.32251 0.933594 7.14088C1.49308 7.14088 1.91269 7.14088 2.47217 7.14088C2.55609 4.84513 2.58407 2.54939 3.53519 1.36775C4.57024 0.118599 5.60528 0.253642 8.71042 0.253642Z" fill="#FFFAFA"/>
</svg>
