<svg width="18" height="13" viewBox="0 0 18 13" fill="none" xmlns="http://www.w3.org/2000/svg">
<path fill-rule="evenodd" clip-rule="evenodd" d="M8.41401 12.5265H9.44906C9.44906 12.5265 9.75677 12.4927 9.92462 12.2901C10.0645 12.0876 10.0645 11.75 10.0645 11.75C10.0645 11.75 10.0365 10.0957 10.6799 9.82559C11.3233 9.58926 12.1346 11.4461 12.9738 12.1551C13.6172 12.6953 14.1207 12.5602 14.1207 12.5602L16.4146 12.5265C16.4146 12.5265 17.6175 12.4252 17.058 11.3111C17.0021 11.2098 16.7223 10.467 15.3516 8.91404C13.8969 7.29352 14.0928 7.5636 15.8272 4.76144C16.8902 3.0734 17.3098 2.0268 17.1699 1.58791C17.058 1.14902 16.2748 1.28406 16.2748 1.28406L13.7011 1.31782C13.7011 1.31782 13.5053 1.28406 13.3654 1.38535C13.2256 1.48663 13.1416 1.72296 13.1416 1.72296C13.1416 1.72296 12.722 3.03963 12.1905 4.15375C11.0436 6.51701 10.568 6.65206 10.4002 6.48325C9.95259 6.14564 10.0645 5.09905 10.0645 4.39007C10.0645 2.09433 10.3442 1.14902 9.505 0.912693C9.22526 0.845171 9.02944 0.777649 8.30211 0.777649C7.37897 0.777649 6.59569 0.777649 6.1481 1.04774C5.84039 1.21654 5.61659 1.62167 5.75646 1.62167C5.92431 1.65543 6.31595 1.75672 6.51177 2.09433C6.76353 2.53322 6.76353 3.51229 6.76353 3.51229C6.76353 3.51229 6.9034 6.21316 6.39987 6.55077C6.06418 6.7871 5.56064 6.31445 4.55357 4.15375C4.02206 3.00587 3.63043 1.79048 3.63043 1.79048C3.63043 1.79048 3.5465 1.55415 3.40663 1.45287C3.23879 1.31782 3.01499 1.2503 3.01499 1.2503H0.553267C0.553267 1.2503 0.189603 1.2503 0.0497319 1.45287C-0.0621648 1.62167 0.0497319 1.99304 0.0497319 1.99304C0.0497319 1.99304 1.95198 7.42856 4.13396 10.1632C6.1481 12.6953 8.41401 12.5265 8.41401 12.5265Z" fill="#FFFAFA"/>
</svg>
