<svg width="15" height="19" viewBox="0 0 15 19" fill="none" xmlns="http://www.w3.org/2000/svg">
<path d="M10.1328 18.551C8.53822 18.551 6.94368 18.551 5.34914 18.551C5.29319 18.551 5.26521 18.5172 5.20926 18.5172C4.64978 18.4834 4.09029 18.4497 3.5308 18.3146C2.29992 17.9433 1.40474 17.0655 0.873229 15.6475C0.593485 14.871 0.509563 14.0607 0.481589 13.2167C0.481589 13.0479 0.453612 12.8453 0.453612 12.6765C0.453612 10.7522 0.453612 8.82779 0.453612 6.90341C0.453612 6.83589 0.481589 6.80213 0.481589 6.73461C0.509563 6.16067 0.509563 5.6205 0.621461 5.04656C0.929179 3.05466 1.90828 1.73798 3.55878 1.23157C4.25814 1.029 4.98547 0.995239 5.7128 0.995239C7.22342 0.995239 8.76202 0.995239 10.2726 1.029C10.8321 1.029 11.4196 1.06276 11.9511 1.23157C13.154 1.60294 14.0492 2.44696 14.5807 3.83116C14.8604 4.60767 14.9444 5.45169 14.9723 6.29571C14.9723 6.46452 15.0003 6.66709 15.0003 6.83589C15.0003 8.76027 15.0003 10.6846 15.0003 12.609C15.0003 12.6765 14.9723 12.7103 14.9723 12.7778C14.9444 13.453 14.9164 14.1283 14.8045 14.8035C14.4968 16.289 13.7694 17.3693 12.5945 18.0108C11.9511 18.3484 11.2797 18.4497 10.5804 18.4834C10.4125 18.551 10.2726 18.551 10.1328 18.551ZM7.72696 2.58201C7.11153 2.61577 6.52406 2.58201 5.90862 2.61577C5.34914 2.64953 4.76168 2.64953 4.20219 2.71705C3.6427 2.78457 3.13916 3.0209 2.71954 3.45979C2.13208 4.06749 1.88031 4.87775 1.85233 5.7893C1.79638 6.83589 1.79638 7.84872 1.76841 8.89531C1.76841 9.90814 1.76841 10.9547 1.76841 11.9676C1.76841 12.6428 1.79638 13.3518 1.85233 14.027C1.90828 14.7022 2.1041 15.3099 2.46777 15.8163C2.97131 16.5253 3.6427 16.8291 4.39801 16.8629C5.26521 16.9304 6.10445 16.9304 6.97165 16.9642C7.81089 16.9642 8.6781 16.9642 9.51733 16.9642C10.0768 16.9642 10.6643 16.9304 11.2238 16.8629C11.7833 16.7954 12.2868 16.5591 12.7064 16.1202C13.2939 15.5125 13.5456 14.7022 13.5736 13.7907C13.6296 12.7441 13.6296 11.7312 13.6575 10.6846C13.6575 9.67181 13.6575 8.62522 13.6575 7.61239C13.6296 6.86965 13.6296 6.09315 13.5456 5.35041C13.3778 4.06749 12.7624 3.22346 11.7273 2.85209C11.3916 2.75081 11.0279 2.68329 10.6643 2.64953C9.68518 2.61577 8.70607 2.61577 7.72696 2.58201Z" fill="#FFFAFA"/>
<path d="M7.7267 5.28436C9.7968 5.28436 11.4753 7.31003 11.4473 9.80834C11.4473 12.3067 9.76883 14.2986 7.69872 14.2986C5.62862 14.2986 3.95015 12.2729 3.97813 9.77458C3.97813 7.27627 5.65659 5.28436 7.7267 5.28436ZM10.1325 9.80834C10.1325 8.18781 9.04149 6.87113 7.7267 6.87113C6.38392 6.87113 5.29292 8.15405 5.29292 9.77458C5.29292 11.3951 6.38393 12.7118 7.69872 12.7118C9.0415 12.7118 10.1325 11.3951 10.1325 9.80834Z" fill="#FFFAFA"/>
<path d="M12.4822 5.11539C12.4822 5.68933 12.0906 6.16198 11.615 6.16198C11.1394 6.16198 10.7478 5.68933 10.7478 5.08163C10.7478 4.50769 11.1394 4.03503 11.615 4.03503C12.0906 4.03503 12.4822 4.50769 12.4822 5.11539Z" fill="#FFFAFA"/>
</svg>
